<?xml version="1.0" encoding="UTF-8"?>
<svg id="Capa_1" xmlns="http://www.w3.org/2000/svg" version="1.1" viewBox="0 0 543.67 88.39">
  <!-- Generator: Adobe Illustrator 29.8.2, SVG Export Plug-In . SVG Version: 2.1.1 Build 3)  -->
  <defs>
    <style>
      .st0 {
        fill: #fff;
      }
    </style>
  </defs>
  <path class="st0" d="M9.76,48.94c.45-.67,6.63-1.13,6.49-4,2,2.88,5.17,3.51,7.9,5.14,1.09.65,1.38,2.36,1.82,2.61,1.97,1.13,7.84-.91,8.86-2.37,1.43-2.05.43-5.61,1.09-7.72.87-2.78,6.13-1.34,4.85-5.66,1.48,0,1.21,1.75,2.6,2.92.75.64,2.33.48,3.15,1.39.33.37,2.7,5.12,3.27,5.94.7,1,.28,1.12,1.96.75l1.17-3.87,3.85-.13.59-8.1,5.28.23.08,6.19,3.03,1.68.06-2.91,5.87-.23c.45-7.19,13.43-1.96,19.63-2.81,3.28-.45,3.61-2.57,5.95-3.04,5.01-1.01,12.14,2.18,17.07-.39,1.89-.98.4-3.99,4.84-1.72l3.6-7.9c2.88,1.37,4.35,3.75,4.01,6.96.89.92,9.66-.92,8.98-3.96h.97c-.05,3.63,4.86,1.41,4.12,5.83l8.89,1.17c.03-1.8.16-3.99.89-5.64.88-1.99,2.55-2.09,2.84-2.62.64-1.15.36-6.76,1.77-6.76,1.05,5.63,5.27,9.42,4.49,15.02h6.01s-1.01-6-1.01-6c1.77-1.06,11.72-.88,12.06.64l.07,9.22,7.87,1.14c-1.86-3.72,5.9-7.48,8.55-7.97,2-.37,7.59.48,8.33-.19.34-.31.22-2.33,1.06-3.39s2.45-1.24,3.07-1.97c1.24-1.45.29-3.59,1.99-3.49-1.05,3.96,4.2,5.19,4.79,6.24s-.13,2.76.38,3.57c.82,1.3,7.04.96,4.88,8.15,7.2-.11,8.54,5.45,16.41,3.98,1.54-.29,2.65-1.67,4.12-1.93,7.73-1.34,7.31,6.79,7.93,6.99,1.5.49,2.54-3.03,2.89-4.08.59-1.77,0-4.83,1.58-4.91l3.22,8.78,10.18.28c2.37-.64,1.26-13.83,1.67-16.51.22-1.43,1.57-2.58,1.84-4.15,1.06-6.13,2.25-12.25,3.11-18.4,2.65-.24,1.62-.06,1.97,1.5,2.51,11.16,6.15,21.82,5.03,33.49,2.06.2.34-2.74,1.11-3.86.7-1.01,5.11.08,3.88-4.12l1.04,2.93c11.8,1.26,23.6,1.1,35.48,1.11,3.66,0,5.19-2.13,8.94.97l1.5-2.01c.91,5.34,6.07,12.11,12.01,11v-5.01s3.97-.03,3.97-.03c-.73-6.62,5.09-5.91,4.04.03,1.37.24,1.3.22,2.11-.65,3.22-3.43.76-2.04,5.88-.35-.93-3.87,2.37-2.23,3.68-5.02l18.68,2,1.14,2.01c3.25-1.28,0-16.99,2.51-21l4.98,6.01c-1.68-4.19,2.28-6.31,2.72-7.26.81-1.75-.33-4.33,1.79-5.74-.08,4.51,4.26,6.74,3.49,9.99l22.45.08.56-3.07c2.68,3.93,4.37,3.19,8.99,2.99-1.21-3.09,3.5-4.75,2-8.99,3.26-.71,1.52,2.18,2.21,4.27.38,1.15,1.78,2.09,1.78,2.23v21.5c10.33.53,21.28-.7,31.53-.04,3.35.22,5.98,1.5,9.07,1.93,4.23.59,10.24-1.19,13.38,2.65,1.17,1.43.82,5.01,3,3.43.09-.06-.32-1.74.66-2,4.41-1.18,16.48-.54,21.84-.99,3.76-.32,8.27-1.2,11.99-2.01l.52,3.02c1.38-1.55,6.99.62,6.99.99v23H9.76v-27Z"/>
</svg>